<?xml version="1.0" encoding="utf-8"?>
<!-- Generator: Adobe Illustrator 26.0.1, SVG Export Plug-In . SVG Version: 6.00 Build 0)  -->
<svg version="1.1" id="Layer_1" xmlns="http://www.w3.org/2000/svg" xmlns:xlink="http://www.w3.org/1999/xlink" x="0px" y="0px"
	 viewBox="0 0 107.83 88.7" style="enable-background:new 0 0 107.83 88.7;" xml:space="preserve">
<style type="text/css">
	.st0{fill:#CDBFFF;}
	.st1{fill:#919FDB;}
</style>
<path class="st0" d="M31.82,26.51c0,0-0.29,2.97,0.29,4.71c0,0-14.5,11.06-21,19.6s-8.83,17.02,0,18.17
	c4.93,0.64,10.08-0.74,12.64-1.59c0.15-0.05,0.24,0.16,0.11,0.23c-2.73,1.54-8.04,4.9-7.46,7.36c0.72,3.07,5.15,3.83,9.32,3.92
	c0.12,0,0.14,0.17,0.02,0.19c-3.75,0.67-17.95,2.43-24.02-7.63C-5.29,59.83,9.98,42.94,31.82,26.51z"/>
<path class="st1" d="M28.24,59.08c0.32,3.08,0.79,7.28,1.18,9.09c0,0-5.5,2.78-8.85,4.98c-0.98,0.64-0.8,2.13,0.32,2.49
	c2.04,0.67,5.21,1.5,8.94,1.73c0,0,0.43,5.95,1.29,10.21c0.23,1.16,1.72,1.52,2.45,0.59c1.78-2.23,3.89-5.79,5.34-9.26
	c0,0,3.1,0.53,9.75,0.88c1.21,0.06,1.93-1.33,1.17-2.27c-1.82-2.25-4.79-5.42-6.83-7.26c0,0,3.09-3.7,5.94-8.65
	c0.69-1.2-0.47-2.59-1.74-2.03c-3.21,1.43-7.45,3.42-10.4,5.27c0,0-3.04-3.75-6.19-6.9C29.69,57.04,28.11,57.77,28.24,59.08z"/>
<path class="st0" d="M84.65,1.16c-5.88,1.39-23.45,6.94-30,11.56l0.92,0.6c0.74,0.51,1.82,1.32,2.86,2.35l0.46-0.2l0,0
	c0,0,15.91-7.44,27.96-5.97c14.65,1.79,9.25,12.39,5.04,18.58c-4.21,6.19-14.86,15.28-23.04,19.24c0,0-6.39-3.72-6.39-7.35
	c0-3.63,3.41-6.66,5.72-5.78c2.31,0.88,2.26,2.59,1.6,4.02c-0.66,1.43,0.88,4.46,3.96,2.92c3.08-1.54,5.5-4.4,4.24-9.69
	c-1.27-5.28-9.58-7.49-14.92-4.46c-5.34,3.03-6.84,6.22-9.39,11.28c-2.55,5.06-8.33,11.39-13.28,10.68
	c-4.95-0.72-3.34-8.01-0.61-9.47c1.59-0.85,2.93-1.44,5.57-1.24c1.19,0.09,2.53-0.82,2.93-2.06c0.35-1.09,0.14-3.08-1.86-4.36
	c-2-1.28-3.91-4.45-1.98-6.38c1.93-1.93,4.45-2.57,7.25,0.23c2.8,2.8,6.65-0.46,6.65-4.42c0-3.41-2.93-8.19-9.83-8.01
	c-6.89,0.19-12.31,4.77-14.13,9.58c-1.82,4.82-0.5,9.06,1.24,11.5c0,0-6.11,1.6-7.49,8.28c-1.38,6.69,3.11,11.75,6.66,13.13
	c3.55,1.38,11.48,0.96,16.6-2.56c5.12-3.52,6.69-5.06,6.69-5.06l3.25,2.75c0,0-6.03,5.34-8.12,11.06
	c-2.09,5.72-0.32,10.18,0.91,12.11c1.23,1.93,6.24,5.45,12.46,4.79c6.22-0.66,11.56-5.56,12.55-11.83
	c0.99-6.28-1.76-11.67-7.54-17.45c0,0,17.04-10.53,25.5-19.69c5.45-5.91,10.75-13.78,10.72-21.48C107.78-1.42,92.8-0.76,84.65,1.16z
	 M63.86,69.16c-1.03,0-4-0.45-4-4.95s4.42-9.78,4.42-9.78s3.3,4.75,3.59,9.62C68.14,68.91,64.89,69.16,63.86,69.16z"/>
</svg>
